<svg t="1686904294090" class="icon" viewBox="0 0 1024 1024" version="1.1" xmlns="http://www.w3.org/2000/svg" p-id="1294" width="48" height="48"><path d="M319.5904 510.6176c52.5312 0 192.4096 1.9968 192.4096 1.9968s-1.9968-139.8784-1.9968-192.4608a190.464 190.464 0 1 0-190.4128 190.464zM225.536 226.1504a133.12 133.12 0 0 1 227.0208 94.0032c0 30.72 0.6656 89.4464 1.2288 134.1952-44.8-0.5632-103.6288-1.1776-134.1952-1.1776a133.12 133.12 0 0 1-94.0544-227.0208zM894.8736 320.1536a190.464 190.464 0 1 0-380.8768-2.7136v2.9184c0 52.5824-1.9968 192.4608-1.9968 192.4608s139.8272-1.9968 192.4096-1.9968a190.5152 190.5152 0 0 0 190.464-190.6688z m-323.4304 0a133.12 133.12 0 1 1 133.12 133.12c-30.72 0-89.3952 0.6144-134.1952 1.1776 0.4096-44.8512 1.0752-103.68 1.0752-134.2976zM129.1264 705.3312a190.464 190.464 0 0 0 380.8768 0c0-52.5824 1.9968-192.4608 1.9968-192.4608s-139.8784 2.048-192.4096 2.048a190.4128 190.4128 0 0 0-190.464 190.4128z m323.4304 0a133.12 133.12 0 1 1-133.12-133.12c30.72 0 89.3952-0.6656 134.1952-1.2288-0.4096 44.9024-1.0752 103.7312-1.0752 134.3488zM704.4096 514.8672c-52.5824 0-192.4096-1.9968-192.4096-1.9968s1.9968 139.8272 1.9968 192.4096a190.464 190.464 0 1 0 190.4128-190.4128zM798.72 799.3344a133.12 133.12 0 0 1-227.0208-94.0032c0-30.72-0.6656-89.4464-1.2288-134.1952 44.8 0.5632 103.6288 1.2288 134.1952 1.2288A133.12 133.12 0 0 1 798.72 799.3344z" fill="currentColor" p-id="1295"></path></svg>
